<mxfile host="app.diagrams.net" agent="Mozilla/5.0 (Windows NT 10.0; Win64; x64) AppleWebKit/537.36 (KHTML, like Gecko) Chrome/139.0.0.0 Safari/537.36 Edg/139.0.0.0" version="28.1.1">
  <diagram name="Page-1" id="XDPCsSQfRMQ0sJvshjU1">
    <mxGraphModel dx="1034" dy="666" grid="1" gridSize="10" guides="1" tooltips="1" connect="1" arrows="1" fold="1" page="1" pageScale="1" pageWidth="850" pageHeight="1100" math="0" shadow="0">
      <root>
        <mxCell id="0" />
        <mxCell id="1" parent="0" />
        <mxCell id="SZ7qn_CmCUo0jC-oK2xg-1" value="Alert thresholds (config)" style="whiteSpace=wrap;strokeWidth=2;verticalAlign=top;" vertex="1" parent="1">
          <mxGeometry x="896" y="779" width="1049" height="129" as="geometry" />
        </mxCell>
        <mxCell id="SZ7qn_CmCUo0jC-oK2xg-2" value="completion_rate &amp;lt; 0.35" style="whiteSpace=wrap;strokeWidth=2;" vertex="1" parent="SZ7qn_CmCUo0jC-oK2xg-1">
          <mxGeometry x="43" y="46" width="228" height="54" as="geometry" />
        </mxCell>
        <mxCell id="SZ7qn_CmCUo0jC-oK2xg-3" value="bounce_rate &gt; 0.55" style="whiteSpace=wrap;strokeWidth=2;" vertex="1" parent="SZ7qn_CmCUo0jC-oK2xg-1">
          <mxGeometry x="321" y="46" width="199" height="54" as="geometry" />
        </mxCell>
        <mxCell id="SZ7qn_CmCUo0jC-oK2xg-4" value="optin_rate &amp;lt; 0.10" style="whiteSpace=wrap;strokeWidth=2;" vertex="1" parent="SZ7qn_CmCUo0jC-oK2xg-1">
          <mxGeometry x="569" y="46" width="184" height="54" as="geometry" />
        </mxCell>
        <mxCell id="SZ7qn_CmCUo0jC-oK2xg-5" value="latency_p95 &gt; 1500ms" style="whiteSpace=wrap;strokeWidth=2;" vertex="1" parent="SZ7qn_CmCUo0jC-oK2xg-1">
          <mxGeometry x="804" y="46" width="218" height="54" as="geometry" />
        </mxCell>
        <mxCell id="SZ7qn_CmCUo0jC-oK2xg-6" value="KPIs (calc in dashboards)" style="whiteSpace=wrap;strokeWidth=2;verticalAlign=top;" vertex="1" parent="1">
          <mxGeometry x="790" y="528" width="1260" height="153" as="geometry" />
        </mxCell>
        <mxCell id="SZ7qn_CmCUo0jC-oK2xg-7" value="completion_rate = complete / start" style="whiteSpace=wrap;strokeWidth=2;" vertex="1" parent="SZ7qn_CmCUo0jC-oK2xg-6">
          <mxGeometry x="43" y="46" width="260" height="78" as="geometry" />
        </mxCell>
        <mxCell id="SZ7qn_CmCUo0jC-oK2xg-8" value="bounce_rate = 1 - start / intro" style="whiteSpace=wrap;strokeWidth=2;" vertex="1" parent="SZ7qn_CmCUo0jC-oK2xg-6">
          <mxGeometry x="353" y="46" width="260" height="78" as="geometry" />
        </mxCell>
        <mxCell id="SZ7qn_CmCUo0jC-oK2xg-9" value="optin_rate = leads / complete" style="whiteSpace=wrap;strokeWidth=2;" vertex="1" parent="SZ7qn_CmCUo0jC-oK2xg-6">
          <mxGeometry x="663" y="46" width="260" height="78" as="geometry" />
        </mxCell>
        <mxCell id="SZ7qn_CmCUo0jC-oK2xg-10" value="avg_intent_confidence (p50/p90)" style="whiteSpace=wrap;strokeWidth=2;" vertex="1" parent="SZ7qn_CmCUo0jC-oK2xg-6">
          <mxGeometry x="973" y="46" width="260" height="78" as="geometry" />
        </mxCell>
        <mxCell id="SZ7qn_CmCUo0jC-oK2xg-11" value="External Providers" style="whiteSpace=wrap;strokeWidth=2;" vertex="1" parent="1">
          <mxGeometry x="154" y="503" width="601" height="203" as="geometry" />
        </mxCell>
        <mxCell id="SZ7qn_CmCUo0jC-oK2xg-12" value="Supabase Edge Functions" style="whiteSpace=wrap;strokeWidth=2;" vertex="1" parent="1">
          <mxGeometry x="133" y="325" width="617" height="128" as="geometry" />
        </mxCell>
        <mxCell id="SZ7qn_CmCUo0jC-oK2xg-13" value="Ops / Alerts" style="whiteSpace=wrap;strokeWidth=2;" vertex="1" parent="1">
          <mxGeometry x="165" y="958" width="1963" height="256" as="geometry" />
        </mxCell>
        <mxCell id="SZ7qn_CmCUo0jC-oK2xg-14" value="PostHog Cloud" style="whiteSpace=wrap;strokeWidth=2;" vertex="1" parent="1">
          <mxGeometry x="1081" y="174" width="863" height="279" as="geometry" />
        </mxCell>
        <mxCell id="SZ7qn_CmCUo0jC-oK2xg-15" value="Frontend (Next.js)" style="whiteSpace=wrap;strokeWidth=2;" vertex="1" parent="1">
          <mxGeometry x="974" y="20" width="1093" height="104" as="geometry" />
        </mxCell>
        <mxCell id="SZ7qn_CmCUo0jC-oK2xg-16" value="emit quiz_intro_shown" style="whiteSpace=wrap;strokeWidth=2;" vertex="1" parent="1">
          <mxGeometry x="1009" y="45" width="223" height="54" as="geometry" />
        </mxCell>
        <mxCell id="SZ7qn_CmCUo0jC-oK2xg-17" value="emit quiz_start_clicked" style="whiteSpace=wrap;strokeWidth=2;" vertex="1" parent="1">
          <mxGeometry x="1282" y="45" width="229" height="54" as="geometry" />
        </mxCell>
        <mxCell id="SZ7qn_CmCUo0jC-oK2xg-18" value="emit quiz_complete" style="whiteSpace=wrap;strokeWidth=2;" vertex="1" parent="1">
          <mxGeometry x="1561" y="45" width="203" height="54" as="geometry" />
        </mxCell>
        <mxCell id="SZ7qn_CmCUo0jC-oK2xg-19" value="emit quiz_cta_clicked" style="whiteSpace=wrap;strokeWidth=2;" vertex="1" parent="1">
          <mxGeometry x="1814" y="45" width="218" height="54" as="geometry" />
        </mxCell>
        <mxCell id="SZ7qn_CmCUo0jC-oK2xg-20" value="/capture" style="whiteSpace=wrap;strokeWidth=2;" vertex="1" parent="1">
          <mxGeometry x="1495" y="199" width="124" height="54" as="geometry" />
        </mxCell>
        <mxCell id="SZ7qn_CmCUo0jC-oK2xg-21" value="Dashboards&#xa;Funnel &amp; KPIs" style="whiteSpace=wrap;strokeWidth=2;" vertex="1" parent="1">
          <mxGeometry x="1293" y="362" width="253" height="54" as="geometry" />
        </mxCell>
        <mxCell id="SZ7qn_CmCUo0jC-oK2xg-22" value="Slack #quiz-alerts" style="whiteSpace=wrap;strokeWidth=2;" vertex="1" parent="1">
          <mxGeometry x="914" y="983" width="187" height="54" as="geometry" />
        </mxCell>
        <mxCell id="SZ7qn_CmCUo0jC-oK2xg-23" value="Runbook&#xa;(steps: flags, kill-switch,&#xa;retry jobs, comms)" style="whiteSpace=wrap;strokeWidth=2;" vertex="1" parent="1">
          <mxGeometry x="877" y="1087" width="260" height="102" as="geometry" />
        </mxCell>
        <mxCell id="SZ7qn_CmCUo0jC-oK2xg-24" value="POST /lead → Email API" style="whiteSpace=wrap;strokeWidth=2;" vertex="1" parent="1">
          <mxGeometry x="168" y="362" width="232" height="54" as="geometry" />
        </mxCell>
        <mxCell id="SZ7qn_CmCUo0jC-oK2xg-25" value="Nightly Export → Storage" style="whiteSpace=wrap;strokeWidth=2;" vertex="1" parent="1">
          <mxGeometry x="473" y="362" width="242" height="54" as="geometry" />
        </mxCell>
        <mxCell id="SZ7qn_CmCUo0jC-oK2xg-26" value="Email Provider API" style="whiteSpace=wrap;strokeWidth=2;" vertex="1" parent="1">
          <mxGeometry x="189" y="578" width="190" height="54" as="geometry" />
        </mxCell>
        <mxCell id="SZ7qn_CmCUo0jC-oK2xg-27" value="Supabase Storage exports/" style="whiteSpace=wrap;strokeWidth=2;" vertex="1" parent="1">
          <mxGeometry x="468" y="578" width="252" height="54" as="geometry" />
        </mxCell>
        <mxCell id="SZ7qn_CmCUo0jC-oK2xg-28" value="PH fail handler&#xa;(queue local, retry backoff)" style="whiteSpace=wrap;strokeWidth=2;" vertex="1" parent="1">
          <mxGeometry x="1978" y="350" width="260" height="78" as="geometry" />
        </mxCell>
        <mxCell id="SZ7qn_CmCUo0jC-oK2xg-29" value="mark synced=false&#xa;schedule retry job" style="whiteSpace=wrap;strokeWidth=2;" vertex="1" parent="1">
          <mxGeometry x="154" y="792" width="260" height="102" as="geometry" />
        </mxCell>
        <mxCell id="SZ7qn_CmCUo0jC-oK2xg-30" value="export failed&#xa;log + schedule retry" style="whiteSpace=wrap;strokeWidth=2;" vertex="1" parent="1">
          <mxGeometry x="464" y="804" width="260" height="78" as="geometry" />
        </mxCell>
        <mxCell id="SZ7qn_CmCUo0jC-oK2xg-31" value="Toggle feature flags&#xa;(e.g., quiz_adaptive_enabled,&#xa;midcheck_sample_rate)" style="whiteSpace=wrap;strokeWidth=2;" vertex="1" parent="1">
          <mxGeometry x="20" y="1276" width="417" height="78" as="geometry" />
        </mxCell>
        <mxCell id="SZ7qn_CmCUo0jC-oK2xg-32" value="Apply kill-switch&#xa;(minimal linear quiz)" style="whiteSpace=wrap;strokeWidth=2;" vertex="1" parent="1">
          <mxGeometry x="487" y="1264" width="260" height="102" as="geometry" />
        </mxCell>
        <mxCell id="SZ7qn_CmCUo0jC-oK2xg-33" value="Trigger retries&#xa;(email sync / export)" style="whiteSpace=wrap;strokeWidth=2;" vertex="1" parent="1">
          <mxGeometry x="1668" y="1276" width="260" height="78" as="geometry" />
        </mxCell>
        <mxCell id="SZ7qn_CmCUo0jC-oK2xg-34" value="Stakeholder comms&#xa;(status, ETA)" style="whiteSpace=wrap;strokeWidth=2;" vertex="1" parent="1">
          <mxGeometry x="1978" y="1276" width="260" height="78" as="geometry" />
        </mxCell>
        <mxCell id="SZ7qn_CmCUo0jC-oK2xg-35" value="" style="curved=1;startArrow=none;endArrow=block;exitX=0.5;exitY=1;entryX=0;entryY=0.36;rounded=0;" edge="1" parent="1" source="SZ7qn_CmCUo0jC-oK2xg-16" target="SZ7qn_CmCUo0jC-oK2xg-20">
          <mxGeometry relative="1" as="geometry">
            <Array as="points">
              <mxPoint x="1121" y="174" />
            </Array>
          </mxGeometry>
        </mxCell>
        <mxCell id="SZ7qn_CmCUo0jC-oK2xg-36" value="" style="curved=1;startArrow=none;endArrow=block;exitX=0.5;exitY=1;entryX=0;entryY=0.13;rounded=0;" edge="1" parent="1" source="SZ7qn_CmCUo0jC-oK2xg-17" target="SZ7qn_CmCUo0jC-oK2xg-20">
          <mxGeometry relative="1" as="geometry">
            <Array as="points">
              <mxPoint x="1397" y="174" />
            </Array>
          </mxGeometry>
        </mxCell>
        <mxCell id="SZ7qn_CmCUo0jC-oK2xg-37" value="" style="curved=1;startArrow=none;endArrow=block;exitX=0.5;exitY=1;entryX=0.94;entryY=0;rounded=0;" edge="1" parent="1" source="SZ7qn_CmCUo0jC-oK2xg-18" target="SZ7qn_CmCUo0jC-oK2xg-20">
          <mxGeometry relative="1" as="geometry">
            <Array as="points">
              <mxPoint x="1663" y="174" />
            </Array>
          </mxGeometry>
        </mxCell>
        <mxCell id="SZ7qn_CmCUo0jC-oK2xg-38" value="" style="curved=1;startArrow=none;endArrow=block;exitX=0.5;exitY=1;entryX=1;entryY=0.34;rounded=0;" edge="1" parent="1" source="SZ7qn_CmCUo0jC-oK2xg-19" target="SZ7qn_CmCUo0jC-oK2xg-20">
          <mxGeometry relative="1" as="geometry">
            <Array as="points">
              <mxPoint x="1923" y="174" />
            </Array>
          </mxGeometry>
        </mxCell>
        <mxCell id="SZ7qn_CmCUo0jC-oK2xg-39" value="" style="curved=1;startArrow=none;endArrow=block;exitX=0.03;exitY=1;entryX=0.5;entryY=0.01;rounded=0;" edge="1" parent="1" source="SZ7qn_CmCUo0jC-oK2xg-20" target="SZ7qn_CmCUo0jC-oK2xg-21">
          <mxGeometry relative="1" as="geometry">
            <Array as="points">
              <mxPoint x="1420" y="289" />
            </Array>
          </mxGeometry>
        </mxCell>
        <mxCell id="SZ7qn_CmCUo0jC-oK2xg-40" value="" style="curved=1;startArrow=none;endArrow=block;exitX=0.5;exitY=1.01;entryX=0.5;entryY=0;rounded=0;" edge="1" parent="1" source="SZ7qn_CmCUo0jC-oK2xg-24" target="SZ7qn_CmCUo0jC-oK2xg-26">
          <mxGeometry relative="1" as="geometry">
            <Array as="points" />
          </mxGeometry>
        </mxCell>
        <mxCell id="SZ7qn_CmCUo0jC-oK2xg-41" value="" style="curved=1;startArrow=none;endArrow=block;exitX=0.5;exitY=1.01;entryX=0.5;entryY=0;rounded=0;" edge="1" parent="1" source="SZ7qn_CmCUo0jC-oK2xg-25" target="SZ7qn_CmCUo0jC-oK2xg-27">
          <mxGeometry relative="1" as="geometry">
            <Array as="points" />
          </mxGeometry>
        </mxCell>
        <mxCell id="SZ7qn_CmCUo0jC-oK2xg-42" value="5xx/timeout" style="curved=1;startArrow=none;endArrow=block;exitX=0.74;exitY=1;entryX=0;entryY=0.28;rounded=0;" edge="1" parent="1" source="SZ7qn_CmCUo0jC-oK2xg-20" target="SZ7qn_CmCUo0jC-oK2xg-28">
          <mxGeometry relative="1" as="geometry">
            <Array as="points">
              <mxPoint x="1625" y="289" />
              <mxPoint x="1625" y="325" />
            </Array>
          </mxGeometry>
        </mxCell>
        <mxCell id="SZ7qn_CmCUo0jC-oK2xg-43" value="retry 1h/24h" style="curved=1;startArrow=none;endArrow=block;exitX=0;exitY=0.19;entryX=1;entryY=0.84;rounded=0;" edge="1" parent="1" source="SZ7qn_CmCUo0jC-oK2xg-28" target="SZ7qn_CmCUo0jC-oK2xg-20">
          <mxGeometry relative="1" as="geometry">
            <Array as="points">
              <mxPoint x="1769" y="325" />
              <mxPoint x="1769" y="289" />
            </Array>
          </mxGeometry>
        </mxCell>
        <mxCell id="SZ7qn_CmCUo0jC-oK2xg-44" value="" style="curved=1;startArrow=none;endArrow=block;exitX=0.5;exitY=1.01;entryX=1;entryY=0.41;rounded=0;" edge="1" parent="1" source="SZ7qn_CmCUo0jC-oK2xg-28" target="SZ7qn_CmCUo0jC-oK2xg-22">
          <mxGeometry relative="1" as="geometry">
            <Array as="points">
              <mxPoint x="2108" y="958" />
            </Array>
          </mxGeometry>
        </mxCell>
        <mxCell id="SZ7qn_CmCUo0jC-oK2xg-45" value="fail/timeout" style="curved=1;startArrow=none;endArrow=block;exitX=0.5;exitY=1;entryX=0.5;entryY=0;rounded=0;" edge="1" parent="1" source="SZ7qn_CmCUo0jC-oK2xg-26" target="SZ7qn_CmCUo0jC-oK2xg-29">
          <mxGeometry relative="1" as="geometry">
            <Array as="points" />
          </mxGeometry>
        </mxCell>
        <mxCell id="SZ7qn_CmCUo0jC-oK2xg-46" value="" style="curved=1;startArrow=none;endArrow=block;exitX=0.5;exitY=1;entryX=0;entryY=0.37;rounded=0;" edge="1" parent="1" source="SZ7qn_CmCUo0jC-oK2xg-29" target="SZ7qn_CmCUo0jC-oK2xg-22">
          <mxGeometry relative="1" as="geometry">
            <Array as="points">
              <mxPoint x="284" y="958" />
            </Array>
          </mxGeometry>
        </mxCell>
        <mxCell id="SZ7qn_CmCUo0jC-oK2xg-47" value="fail/space" style="curved=1;startArrow=none;endArrow=block;exitX=0.5;exitY=1;entryX=0.5;entryY=0;rounded=0;" edge="1" parent="1" source="SZ7qn_CmCUo0jC-oK2xg-27" target="SZ7qn_CmCUo0jC-oK2xg-30">
          <mxGeometry relative="1" as="geometry">
            <Array as="points" />
          </mxGeometry>
        </mxCell>
        <mxCell id="SZ7qn_CmCUo0jC-oK2xg-48" value="" style="curved=1;startArrow=none;endArrow=block;exitX=0.5;exitY=1;entryX=0;entryY=0.28;rounded=0;" edge="1" parent="1" source="SZ7qn_CmCUo0jC-oK2xg-30" target="SZ7qn_CmCUo0jC-oK2xg-22">
          <mxGeometry relative="1" as="geometry">
            <Array as="points">
              <mxPoint x="594" y="958" />
            </Array>
          </mxGeometry>
        </mxCell>
        <mxCell id="SZ7qn_CmCUo0jC-oK2xg-49" value="" style="curved=1;startArrow=none;endArrow=block;exitX=0.5;exitY=1;entryX=0.5;entryY=0;rounded=0;" edge="1" parent="1" source="SZ7qn_CmCUo0jC-oK2xg-22" target="SZ7qn_CmCUo0jC-oK2xg-23">
          <mxGeometry relative="1" as="geometry">
            <Array as="points" />
          </mxGeometry>
        </mxCell>
        <mxCell id="SZ7qn_CmCUo0jC-oK2xg-50" value="" style="curved=1;startArrow=none;endArrow=block;exitX=0;exitY=0.62;entryX=0.5;entryY=0;rounded=0;" edge="1" parent="1" source="SZ7qn_CmCUo0jC-oK2xg-23" target="SZ7qn_CmCUo0jC-oK2xg-31">
          <mxGeometry relative="1" as="geometry">
            <Array as="points">
              <mxPoint x="229" y="1214" />
            </Array>
          </mxGeometry>
        </mxCell>
        <mxCell id="SZ7qn_CmCUo0jC-oK2xg-51" value="" style="curved=1;startArrow=none;endArrow=block;exitX=0;exitY=0.75;entryX=0.5;entryY=0;rounded=0;" edge="1" parent="1" source="SZ7qn_CmCUo0jC-oK2xg-23" target="SZ7qn_CmCUo0jC-oK2xg-32">
          <mxGeometry relative="1" as="geometry">
            <Array as="points">
              <mxPoint x="617" y="1214" />
            </Array>
          </mxGeometry>
        </mxCell>
        <mxCell id="SZ7qn_CmCUo0jC-oK2xg-52" value="" style="curved=1;startArrow=none;endArrow=block;exitX=1;exitY=0.62;entryX=0.5;entryY=0;rounded=0;" edge="1" parent="1" source="SZ7qn_CmCUo0jC-oK2xg-23" target="SZ7qn_CmCUo0jC-oK2xg-33">
          <mxGeometry relative="1" as="geometry">
            <Array as="points">
              <mxPoint x="1798" y="1214" />
            </Array>
          </mxGeometry>
        </mxCell>
        <mxCell id="SZ7qn_CmCUo0jC-oK2xg-53" value="" style="curved=1;startArrow=none;endArrow=block;exitX=1;exitY=0.59;entryX=0.5;entryY=0;rounded=0;" edge="1" parent="1" source="SZ7qn_CmCUo0jC-oK2xg-23" target="SZ7qn_CmCUo0jC-oK2xg-34">
          <mxGeometry relative="1" as="geometry">
            <Array as="points">
              <mxPoint x="2108" y="1214" />
            </Array>
          </mxGeometry>
        </mxCell>
        <mxCell id="SZ7qn_CmCUo0jC-oK2xg-54" value="" style="curved=1;startArrow=none;endArrow=block;exitX=0.5;exitY=1.01;entryX=0.5;entryY=0;rounded=0;" edge="1" parent="1" source="SZ7qn_CmCUo0jC-oK2xg-21" target="SZ7qn_CmCUo0jC-oK2xg-6">
          <mxGeometry relative="1" as="geometry">
            <Array as="points" />
          </mxGeometry>
        </mxCell>
        <mxCell id="SZ7qn_CmCUo0jC-oK2xg-55" value="" style="curved=1;startArrow=none;endArrow=block;exitX=0.5;exitY=1;entryX=0.5;entryY=0;rounded=0;" edge="1" parent="1" source="SZ7qn_CmCUo0jC-oK2xg-6" target="SZ7qn_CmCUo0jC-oK2xg-1">
          <mxGeometry relative="1" as="geometry">
            <Array as="points" />
          </mxGeometry>
        </mxCell>
        <mxCell id="SZ7qn_CmCUo0jC-oK2xg-56" value="" style="curved=1;startArrow=none;endArrow=block;exitX=0.5;exitY=1;entryX=1;entryY=0.28;rounded=0;" edge="1" parent="1" source="SZ7qn_CmCUo0jC-oK2xg-1" target="SZ7qn_CmCUo0jC-oK2xg-22">
          <mxGeometry relative="1" as="geometry">
            <Array as="points">
              <mxPoint x="1420" y="958" />
            </Array>
          </mxGeometry>
        </mxCell>
      </root>
    </mxGraphModel>
  </diagram>
</mxfile>
